# xmcd
#
# Track frame offsets: 
#        150
#        23332
#        44703
#        65558
#        81412
#        107812
#        125540
#        148468
#        166743
#        183168
#        197785
#        215621
#        237009
#
# Disc length: 3392 seconds
#
# Revision: 0
# Processed by: cddbd v1.5.2PL0 Copyright (c) Steve Scherf et al.
# Submitted via: ExactAudioCopy v0.95b4
#
DISCID=bc0d3e0d
DTITLE=The Charlie Daniels Band - The Epic Trilogy - Volume one
DYEAR=2007
DGENRE=Southern Rock
TTITLE0=Funky Junky
TTITLE1=Birmingham Blues
TTITLE2=Damn Good Cowboy
TTITLE3=Tomorrow's Gonna Be Another Day
TTITLE4=Billy The Kid
TTITLE5=Carolina (I Remember You)
TTITLE6=High Lonesome
TTITLE7=Running With The Crowd
TTITLE8=Right Now Thennessee Blues
TTITLE9=Roll Mississippi
TTITLE10=Slow Song
TTITLE11=Tennessee
TTITLE12=Turned My Head Around
EXTD=
EXTT0=
EXTT1=
EXTT2=
EXTT3=
EXTT4=
EXTT5=
EXTT6=
EXTT7=
EXTT8=
EXTT9=
EXTT10=
EXTT11=
EXTT12=
PLAYORDER=
